<?xml version="1.0" standalone="no"?>
<svg xmlns="http://www.w3.org/2000/svg" viewBox="0 0 198.19921875 299.9196384317954" width="198.19921875" height="299.9196384317954"><rect fill="none" stroke="#ead017" stroke-width="4" width="194.19921875" height="295.9196384317954" x="2" y="2"></rect><g fill="#000000" color="#000000" transform="translate(74.1 12) scale(0.5)"><svg width="100.0" height="100.0" x="0.0" y="0.0" viewBox="0 0 100 100"><g><rect x="-192" width="185" height="99"></rect><rect y="-36" width="100" height="30"></rect><text transform="matrix(1 0 0 1 66 -19.5)" fill="currentColor" font-family="'Helvetica'" font-size="2.4"></text><text transform="matrix(1 0 0 1 7.166 -24.5)"><tspan x="0" y="0" fill="currentColor" font-family="'Helvetica-Bold'" font-size="6.1578"></tspan><tspan x="1.12" y="4.8" fill="currentColor" font-family="'Helvetica-Bold'" font-size="4"></tspan></text><text transform="matrix(1 0 0 1 -178.5 10.5)" fill="currentColor" font-family="'Helvetica-Bold'" font-size="6.1578"></text><line fill="currentColor" stroke="currentColor" stroke-miterlimit="10" x1="8" y1="-14.5" x2="18" y2="-14.5"></line><line fill="currentColor" stroke="currentColor" stroke-miterlimit="10" x1="-179" y1="16.5" x2="-162" y2="16.5"></line><g><g><g><rect x="-170.802" y="31.318" fill="currentColor" width="8.721" height="8.642"></rect><path fill="currentColor" d="M-164.455,42.312h4.747v-4.703h-4.747V42.312z M-159.266,42.749h-5.63V37.17h5.63V42.749      L-159.266,42.749z M-166.221,44.062h8.279v-8.203h-8.279V44.062L-166.221,44.062z M-157.5,44.5h-9.163v-9.079h9.163V44.5      L-157.5,44.5z"></path><polygon fill="currentColor" points="-166.149,44.133 -166.292,43.991 -158.013,35.787 -157.871,35.929     "></polygon></g></g></g><rect x="-179" y="58" fill="none" width="35" height="32.5"></rect><text transform="matrix(1 0 0 1 -179 60.1572)"><tspan x="0" y="0" fill="currentColor" font-family="'Helvetica-Bold'" font-size="3"></tspan><tspan x="0" y="5" fill="currentColor" font-family="'Helvetica'" font-size="2.4"></tspan><tspan x="0" y="10" fill="currentColor" font-family="'Helvetica'" font-size="2.4"></tspan><tspan x="0" y="14.5" fill="currentColor" font-family="'Helvetica'" font-size="2.4"></tspan><tspan x="0" y="17.5" fill="currentColor" font-family="'Helvetica'" font-size="2.4"></tspan><tspan x="0" y="22" fill="currentColor" font-family="'Helvetica-Bold'" font-size="2.4"></tspan><tspan x="0" y="25" fill="currentColor" font-family="'Helvetica-Bold'" font-size="2.4"></tspan></text><rect x="-136.5" y="58" fill="none" width="35" height="32.5"></rect><text transform="matrix(1 0 0 1 -136.5 60.1572)"><tspan x="0" y="0" fill="currentColor" font-family="'Helvetica-Bold'" font-size="3"></tspan><tspan x="0" y="5" fill="currentColor" font-family="'Helvetica'" font-size="2.4"></tspan><tspan x="0" y="8.5" fill="currentColor" font-family="'Helvetica'" font-size="2.4"></tspan><tspan x="0" y="13.5" fill="currentColor" font-family="'Helvetica'" font-size="2.4"></tspan><tspan x="0" y="16.5" fill="currentColor" font-family="'Helvetica'" font-size="2.4"></tspan></text><rect x="-94" y="58" fill="none" width="35" height="32.5"></rect><text transform="matrix(1 0 0 1 -94 60.1572)"><tspan x="0" y="0" fill="currentColor" font-family="'Helvetica-Bold'" font-size="3"></tspan><tspan x="0" y="5" fill="currentColor" font-family="'Helvetica'" font-size="2.4"></tspan><tspan x="0" y="8" fill="currentColor" font-family="'Helvetica'" font-size="2.4"></tspan></text><rect x="-50" y="58" fill="none" width="35" height="32.5"></rect><text transform="matrix(1 0 0 1 -50 60.1572)"><tspan x="0" y="0" fill="currentColor" font-family="'Helvetica-Bold'" font-size="3"></tspan><tspan x="0" y="5" fill="currentColor" font-family="'Helvetica'" font-size="2.4"></tspan><tspan x="0" y="8" fill="currentColor" font-family="'Helvetica'" font-size="2.4"></tspan></text><text transform="matrix(1.0074 0 0 1 -125.542 30.5933)" fill="currentColor" font-family="'Helvetica'" font-size="2.5731"></text><text transform="matrix(1.0074 0 0 1 -41 39)" fill="currentColor" font-family="'Helvetica-Bold'" font-size="5.1462"></text><rect x="-126.514" y="34.815" fill="currentColor" width="10.261" height="10.185"></rect><rect x="-126.477" y="31.766" fill="currentColor" width="0.522" height="2.337"></rect><rect x="-116.812" y="31.766" fill="currentColor" width="0.523" height="2.337"></rect><rect x="-127" y="32.337" fill="currentColor" width="11.233" height="0.572"></rect><g><rect x="-83.805" y="33.844" fill="currentColor" width="10.305" height="10.156"></rect><rect x="-76.809" y="28.707" fill="currentColor" width="3.308" height="3.261"></rect></g><rect x="-178.5" y="22.5" fill="currentColor" stroke="currentColor" stroke-miterlimit="10" width="30" height="30"></rect><rect x="-136.5" y="22.5" fill="currentColor" stroke="currentColor" stroke-miterlimit="10" width="30" height="30"></rect><rect x="-93.5" y="22.5" fill="currentColor" stroke="currentColor" stroke-miterlimit="10" width="30" height="30"></rect><rect x="-49.5" y="22.5" fill="currentColor" stroke="currentColor" stroke-miterlimit="10" width="30" height="30"></rect></g><g><g><path d="M14.717,64.125H8.5v-9.707l0.086-0.32c0.242-0.893,2.876-8.723,20.811-8.723c4.833,0,7.837-2.443,10.742-4.806    c2.599-2.114,5.287-4.3,8.957-4.3h20.851l9.106,6.318h12.682v16.752l-0.938,0.75c-0.45,0.361-4.528,3.523-8.995,3.523v-5    c1.731,0,3.7-0.993,4.933-1.772v-9.253h-9.246l-9.106-6.318H49.096c-1.893,0-3.618,1.403-5.802,3.179    c-3.247,2.641-7.287,5.927-13.897,5.927c-12.328,0-15.383,3.993-15.897,4.862v3.889h1.217V64.125z"></path></g><g><path d="M23.439,68.5c-3.893,0-7.061-3.167-7.061-7.06c0-3.894,3.167-7.061,7.061-7.061S30.5,57.547,30.5,61.44    C30.5,65.333,27.333,68.5,23.439,68.5z M23.439,59.38c-1.136,0-2.061,0.925-2.061,2.061s0.924,2.06,2.061,2.06    s2.061-0.924,2.061-2.06S24.576,59.38,23.439,59.38z"></path></g><g><path d="M73.34,68.5c-3.893,0-7.06-3.167-7.06-7.06c0-3.894,3.167-7.061,7.06-7.061c3.894,0,7.062,3.167,7.062,7.061    C80.401,65.333,77.233,68.5,73.34,68.5z M73.34,59.38c-1.136,0-2.06,0.925-2.06,2.061s0.924,2.06,2.06,2.06    c1.137,0,2.062-0.924,2.062-2.06S74.477,59.38,73.34,59.38z"></path></g><g><rect x="31.813" y="58.94" width="32.893" height="5"></rect></g></g></svg></g><path fill="#000000" fill-rule="nonzero" d="M8.11 33.95L8.11 33.95Q7.32 33.95 6.42 33.82Q5.51 33.69 4.60 33.28Q3.69 32.87 2.86 32.12Q2.03 31.37 1.40 30.14Q0.76 28.91 0.38 27.10Q0 25.29 0 22.79L0 22.79L0 10.98Q0 8.46 0.39 6.67Q0.78 4.88 1.43 3.66Q2.07 2.44 2.91 1.72Q3.75 1.00 4.65 0.62Q5.55 0.23 6.44 0.12Q7.32 0 8.09 0L8.09 0Q10.08 0 11.42 0.56Q12.75 1.11 13.56 2.08Q14.38 3.05 14.72 4.34Q15.06 5.63 15.06 7.07L15.06 7.07Q15.06 8.14 14.95 9.05Q14.84 9.96 14.63 11.05L14.63 11.05L10.53 11.05L10.53 9.36Q10.53 6.60 9.92 5.23Q9.32 3.87 8.14 3.87L8.14 3.87Q7.44 3.87 6.91 4.14Q6.39 4.41 6.04 5.07Q5.68 5.72 5.50 6.80Q5.31 7.87 5.31 9.47L5.31 9.47L5.31 24.71Q5.31 26.27 5.46 27.30Q5.61 28.34 5.94 28.96Q6.27 29.59 6.81 29.85Q7.34 30.12 8.11 30.12L8.11 30.12Q8.59 30.12 9.04 29.89Q9.49 29.67 9.83 29.19Q10.18 28.71 10.38 27.98Q10.59 27.25 10.59 26.25L10.59 26.25L10.59 22.99L15.21 22.99L15.21 26.07Q15.21 30.10 13.38 32.01Q11.54 33.93 8.11 33.95ZM16.72 33.65L22.87 0.29L28.69 0.29L34.86 33.65L29.75 33.65L28.83 27.68L22.73 27.68L21.86 33.65L16.72 33.65ZM23.32 23.87L28.24 23.87L25.90 7.25L25.68 7.25L23.32 23.87ZM38.09 33.65L38.09 0.29L43.57 0.29Q44.51 0.29 45.63 0.37Q46.76 0.45 47.88 0.75Q49.00 1.05 50.05 1.66Q51.09 2.27 51.90 3.32Q52.71 4.38 53.20 5.97Q53.69 7.56 53.69 9.82L53.69 9.82L53.69 10.66Q53.69 14.47 52.60 16.87Q51.50 19.26 49.38 20.31L49.38 20.31L54.73 33.65L49.38 33.65L44.94 21.17L43.05 21.17L43.05 33.65L38.09 33.65ZM43.05 17.52L43.81 17.52Q45.14 17.52 46.05 17.23Q46.97 16.93 47.54 16.24Q48.11 15.55 48.36 14.40Q48.61 13.26 48.61 11.58L48.61 11.58L48.61 8.95Q48.61 7.66 48.38 6.72Q48.14 5.78 47.59 5.18Q47.03 4.57 46.11 4.28Q45.20 3.98 43.81 3.98L43.81 3.98L43.05 3.98L43.05 17.52Z" transform="translate(12 77) scale(3.184)"></path><path fill="#000000" fill-rule="nonzero" d="M0 33.65L0 0.29L5.06 0.29Q6.02 0.29 7.16 0.38Q8.30 0.47 9.44 0.79Q10.59 1.11 11.65 1.78Q12.71 2.44 13.54 3.58Q14.36 4.73 14.85 6.45Q15.35 8.16 15.35 10.63L15.35 10.63L15.35 11.80Q15.35 14.47 14.89 16.38Q14.43 18.28 13.67 19.58Q12.91 20.88 11.90 21.66Q10.90 22.44 9.81 22.84Q8.73 23.24 7.63 23.37Q6.52 23.50 5.55 23.50L5.55 23.50L5.06 23.50L5.06 33.65L0 33.65ZM5.06 19.79L5.31 19.79Q6.68 19.79 7.62 19.38Q8.55 18.98 9.11 18.13Q9.67 17.29 9.91 15.95Q10.16 14.61 10.16 12.73L10.16 12.73L10.16 9.73Q10.16 8.24 9.94 7.16Q9.73 6.07 9.17 5.37Q8.61 4.67 7.68 4.33Q6.74 3.98 5.31 3.98L5.31 3.98L5.06 3.98L5.06 19.79ZM19.18 33.65L19.18 0.29L24.67 0.29Q25.61 0.29 26.73 0.37Q27.85 0.45 28.97 0.75Q30.10 1.05 31.14 1.66Q32.19 2.27 33.00 3.32Q33.81 4.38 34.30 5.97Q34.79 7.56 34.79 9.82L34.79 9.82L34.79 10.66Q34.79 14.47 33.69 16.87Q32.60 19.26 30.47 20.31L30.47 20.31L35.82 33.65L30.47 33.65L26.04 21.17L24.14 21.17L24.14 33.65L19.18 33.65ZM24.14 17.52L24.90 17.52Q26.23 17.52 27.15 17.23Q28.07 16.93 28.63 16.24Q29.20 15.55 29.45 14.40Q29.71 13.26 29.71 11.58L29.71 11.58L29.71 8.95Q29.71 7.66 29.47 6.72Q29.24 5.78 28.68 5.18Q28.13 4.57 27.21 4.28Q26.29 3.98 24.90 3.98L24.90 3.98L24.14 3.98L24.14 17.52ZM47.03 33.95L47.03 33.95Q46.23 33.95 45.29 33.82Q44.36 33.69 43.44 33.28Q42.52 32.87 41.67 32.12Q40.82 31.37 40.17 30.14Q39.51 28.91 39.12 27.10Q38.73 25.29 38.73 22.79L38.73 22.79L38.73 10.98Q38.73 8.46 39.13 6.67Q39.53 4.88 40.20 3.66Q40.86 2.44 41.71 1.72Q42.56 1.00 43.49 0.62Q44.41 0.23 45.33 0.12Q46.25 0 47.03 0L47.03 0Q47.77 0 48.68 0.11Q49.59 0.21 50.50 0.58Q51.41 0.94 52.27 1.65Q53.13 2.36 53.79 3.58Q54.45 4.80 54.85 6.61Q55.25 8.42 55.25 10.98L55.25 10.98L55.25 22.79Q55.25 25.27 54.84 27.06Q54.43 28.85 53.77 30.09Q53.11 31.33 52.24 32.08Q51.37 32.83 50.46 33.25Q49.55 33.67 48.65 33.81Q47.75 33.95 47.03 33.95ZM47.03 30.14L47.03 30.14Q47.77 30.14 48.33 29.88Q48.89 29.63 49.25 29.00Q49.61 28.38 49.79 27.35Q49.98 26.33 49.98 24.77L49.98 24.77L49.98 9.59Q49.98 7.99 49.79 6.91Q49.61 5.84 49.25 5.19Q48.89 4.53 48.33 4.26Q47.77 3.98 47.03 3.98L47.03 3.98Q46.27 3.98 45.70 4.26Q45.14 4.53 44.77 5.19Q44.39 5.84 44.21 6.91Q44.02 7.99 44.02 9.59L44.02 9.59L44.02 24.77Q44.02 26.33 44.21 27.35Q44.39 28.38 44.77 29.00Q45.14 29.63 45.70 29.88Q46.27 30.14 47.03 30.14ZM60.04 33.65L60.04 0.29L65.10 0.29Q66.05 0.29 67.20 0.38Q68.34 0.47 69.48 0.79Q70.63 1.11 71.69 1.78Q72.75 2.44 73.57 3.58Q74.39 4.73 74.89 6.45Q75.39 8.16 75.39 10.63L75.39 10.63L75.39 11.80Q75.39 14.47 74.93 16.38Q74.47 18.28 73.71 19.58Q72.95 20.88 71.94 21.66Q70.94 22.44 69.85 22.84Q68.77 23.24 67.67 23.37Q66.56 23.50 65.59 23.50L65.59 23.50L65.10 23.50L65.10 33.65L60.04 33.65ZM65.10 19.79L65.35 19.79Q66.72 19.79 67.66 19.38Q68.59 18.98 69.15 18.13Q69.71 17.29 69.95 15.95Q70.20 14.61 70.20 12.73L70.20 12.73L70.20 9.73Q70.20 8.24 69.98 7.16Q69.77 6.07 69.21 5.37Q68.65 4.67 67.71 4.33Q66.78 3.98 65.35 3.98L65.35 3.98L65.10 3.98L65.10 19.79ZM79.22 33.65L79.22 0.29L91.58 0.29L91.58 4.28L84.28 4.28L84.28 14.26L89.92 14.26L89.92 18.24L84.28 18.24L84.28 29.67L91.78 29.67L91.78 33.65L79.22 33.65ZM95.43 33.65L95.43 0.29L100.92 0.29Q101.86 0.29 102.98 0.37Q104.10 0.45 105.22 0.75Q106.35 1.05 107.39 1.66Q108.44 2.27 109.25 3.32Q110.06 4.38 110.55 5.97Q111.04 7.56 111.04 9.82L111.04 9.82L111.04 10.66Q111.04 14.47 109.94 16.87Q108.85 19.26 106.72 20.31L106.72 20.31L112.07 33.65L106.72 33.65L102.29 21.17L100.39 21.17L100.39 33.65L95.43 33.65ZM100.39 17.52L101.15 17.52Q102.48 17.52 103.40 17.23Q104.32 16.93 104.88 16.24Q105.45 15.55 105.70 14.40Q105.96 13.26 105.96 11.58L105.96 11.58L105.96 8.95Q105.96 7.66 105.72 6.72Q105.49 5.78 104.93 5.18Q104.38 4.57 103.46 4.28Q102.54 3.98 101.15 3.98L101.15 3.98L100.39 3.98L100.39 17.52ZM118.98 33.65L118.98 4.28L113.61 4.28L113.61 0.29L129.39 0.29L129.39 4.28L124.04 4.28L124.04 33.65L118.98 33.65ZM132.81 33.65L132.81 0.29L137.87 0.29L137.87 33.65L132.81 33.65ZM143.57 33.65L143.57 0.29L155.94 0.29L155.94 4.28L148.63 4.28L148.63 14.26L154.28 14.26L154.28 18.24L148.63 18.24L148.63 29.67L156.13 29.67L156.13 33.65L143.57 33.65ZM158.50 26.89L158.50 26.89Q158.50 25.82 158.62 24.91Q158.75 24.00 159.00 22.95L159.00 22.95L162.93 22.95L162.93 24.57Q162.93 25.92 163.10 26.95Q163.26 27.99 163.64 28.70Q164.02 29.41 164.66 29.78Q165.29 30.14 166.21 30.14L166.21 30.14Q167.66 30.14 168.42 29.35Q169.18 28.55 169.18 27.03L169.18 27.03Q169.18 26.25 169.07 25.60Q168.96 24.94 168.70 24.30Q168.44 23.65 167.99 22.94Q167.54 22.23 166.84 21.35L166.84 21.35L161.56 15.08Q160.16 13.28 159.39 11.46Q158.63 9.63 158.63 7.56L158.63 7.56Q158.63 5.90 159.15 4.51Q159.67 3.13 160.64 2.12Q161.62 1.11 163.06 0.56Q164.49 0 166.31 0L166.31 0Q168.52 0 169.99 0.63Q171.46 1.25 172.34 2.27Q173.22 3.28 173.58 4.54Q173.95 5.80 173.95 7.07L173.95 7.07Q173.95 8.14 173.78 9.05Q173.61 9.96 173.40 11.05L173.40 11.05L169.49 11.05L169.49 9.47Q169.49 6.82 168.73 5.40Q167.97 3.98 166.25 3.98L166.25 3.98Q164.82 3.98 164.12 4.78Q163.42 5.57 163.42 6.89L163.42 6.89Q163.42 7.60 163.53 8.16Q163.63 8.73 163.84 9.21Q164.04 9.69 164.34 10.14Q164.63 10.59 165 11.07L165 11.07L170.88 18.18Q172.48 20.27 173.34 22.20Q174.20 24.12 174.20 26.27L174.20 26.27Q174.20 28.05 173.64 29.47Q173.09 30.90 172.05 31.89Q171.02 32.89 169.55 33.43Q168.09 33.96 166.25 33.96L166.25 33.96Q163.98 33.96 162.49 33.36Q161.00 32.75 160.11 31.76Q159.22 30.76 158.86 29.49Q158.50 28.22 158.50 26.89Z" transform="translate(12 193.051) scale(1)"></path><path fill="#000000" fill-rule="nonzero" d="M6.05 33.36L0 0L5.18 0L8.85 26.43L9.06 26.43L12.75 0L17.91 0L11.84 33.36L6.05 33.36ZM21.13 33.36L21.13 0L26.19 0L26.19 33.36L21.13 33.36ZM31.89 33.36L31.89 0L44.26 0L44.26 3.98L36.95 3.98L36.95 13.96L42.60 13.96L42.60 17.95L36.95 17.95L36.95 29.38L44.45 29.38L44.45 33.36L31.89 33.36ZM50.78 33.36L45.98 0L50.82 0L53.07 20.16L53.32 24.86L53.81 24.86L54.28 19.57L57.87 0L61.91 0L65.35 19.57L65.74 24.86L66.25 24.86L66.48 20.16L68.54 0L73.40 0L68.73 33.36L63.59 33.36L60.84 17.32L59.98 10.35L59.59 10.35L58.75 17.32L55.86 33.36L50.78 33.36ZM76.99 33.36L76.99 0L89.36 0L89.36 3.98L82.05 3.98L82.05 13.96L87.70 13.96L87.70 17.95L82.05 17.95L82.05 29.38L89.55 29.38L89.55 33.36L76.99 33.36ZM93.20 33.36L93.20 0L98.69 0Q99.63 0 100.75 0.08Q101.88 0.16 103.00 0.46Q104.12 0.76 105.17 1.37Q106.21 1.97 107.02 3.03Q107.83 4.08 108.32 5.67Q108.81 7.27 108.81 9.53L108.81 9.53L108.81 10.37Q108.81 14.18 107.71 16.57Q106.62 18.96 104.49 20.02L104.49 20.02L109.84 33.36L104.49 33.36L100.06 20.88L98.16 20.88L98.16 33.36L93.20 33.36ZM98.16 17.23L98.93 17.23Q100.25 17.23 101.17 16.93Q102.09 16.64 102.66 15.95Q103.22 15.25 103.48 14.11Q103.73 12.97 103.73 11.29L103.73 11.29L103.73 8.65Q103.73 7.36 103.50 6.43Q103.26 5.49 102.71 4.88Q102.15 4.28 101.23 3.98Q100.31 3.69 98.93 3.69L98.93 3.69L98.16 3.69L98.16 17.23Z" transform="translate(12 235.016) scale(1.586)"></path></svg>